<svg xmlns="http://www.w3.org/2000/svg" width="65" height="36.174" viewBox="0 0 65 36.174">
  <path id="logo-bcb" d="M39.577,27.84h1.356l-.049-3.748h.025l1.923,3.748h1.8v-5.5H43.3l.025,3.723H43.3l-1.849-3.723H39.577v5.5Zm7.077,0h1.455V23.426h1.356V22.341H45.3v1.085h1.356Zm3.477,0h1.455V25.67h.3c.542,0,.74.247,1.036,1.184l.321.986h1.529l-.542-1.5c-.271-.666-.3-1.085-.789-1.208V25.1a1.294,1.294,0,0,0,1.06-1.381c0-.937-.789-1.381-1.775-1.381H50.106l.025,5.5Zm1.455-4.463h.395c.567,0,1.06.1,1.06.616,0,.616-.592.641-1.06.641h-.395V23.376ZM4.611,27.84h1.48l.444-1.184H8.606l.419,1.184H10.6l-2.121-5.5h-1.8C6.707,22.341,4.611,27.84,4.611,27.84ZM8.261,25.62H6.88l.715-2.145H7.62l.641,2.145ZM0,27.84H2.318c.986,0,2.145-.271,2.145-1.578,0-.666-.37-1.06-1.11-1.208v-.025a1.233,1.233,0,0,0,.962-1.282c0-.937-.764-1.406-1.775-1.406H0v5.5ZM1.455,25.5H1.9c.493,0,1.085.049,1.085.666,0,.567-.567.641-1.085.641H1.455Zm0-2.121h.419c.493,0,.962.049.962.542,0,.469-.493.592-.986.592H1.455Zm9.494,4.463H12.3l-.049-3.748h.025L14.2,27.84h1.825v-5.5H14.7l.025,3.723H14.7l-1.874-3.723H10.948v5.5Zm10.431-1.282a4.465,4.465,0,0,1-1.381.3,1.752,1.752,0,1,1-.1-3.5,2.723,2.723,0,0,1,1.43.395l.123-1.184a6.11,6.11,0,0,0-1.627-.3c-1.8,0-3.156.962-3.156,2.86,0,2.071,1.7,2.811,3.156,2.811a6.026,6.026,0,0,0,1.627-.222l-.074-1.159Zm.222-1.48a2.551,2.551,0,0,0,2.762,2.836,2.551,2.551,0,0,0,2.762-2.836,2.54,2.54,0,0,0-2.762-2.836A2.54,2.54,0,0,0,21.6,25.078Zm1.5,0c0-.962.345-1.751,1.233-1.751s1.233.814,1.233,1.751c0,.912-.345,1.751-1.233,1.751S23.105,25.99,23.105,25.078Zm11.022,1.48a4.465,4.465,0,0,1-1.381.3,1.752,1.752,0,1,1-.1-3.5,2.723,2.723,0,0,1,1.43.395l.123-1.184a6.289,6.289,0,0,0-1.652-.3c-1.8,0-3.156.962-3.156,2.86,0,2.071,1.7,2.811,3.156,2.811a6.026,6.026,0,0,0,1.627-.222l-.049-1.159Zm.74,1.282h3.97V26.8H36.347V25.571h2.269V24.535H36.347V23.4h2.417V22.365H34.892l-.025,5.474Zm20.072,0h1.48l.444-1.184h2.071l.419,1.184h1.6l-2.121-5.5h-1.8l-2.1,5.5Zm3.625-2.219H57.183l.715-2.145h.025Zm2.712,2.219H65V26.755H62.731V22.341H61.277v5.5ZM28.9,19.579h5.5l1.726-1.726h-5.5V14.77h1.036l1.726-1.726H29.245V8.926l-1.726,1.726v1.036H24.437v-5.5L22.711,7.915v5.5h3.107V16.5h3.107v3.082ZM35.089,7.225V3.107l1.726-1.726V5.524h4.118L39.207,7.25ZM30.626,1.381H29.245V5.5h4.118L31.637,7.225H27.519V6.189H25.793V4.808L30.626,0ZM40.933,13.069V11.688h1.381L37.481,16.5H36.1V14.77H35.064V10.653l1.726-1.726v4.143ZM12.181,36.076h2c1.874,0,3.255-.715,3.255-2.762,0-2.121-1.332-2.737-3.255-2.737h-2v5.5Zm1.455-4.414H14.2a1.653,1.653,0,1,1,0,3.3h-.567Zm4.118,1.677a2.551,2.551,0,0,0,2.762,2.836,2.551,2.551,0,0,0,2.762-2.836A2.54,2.54,0,0,0,20.516,30.5,2.529,2.529,0,0,0,17.754,33.338Zm1.5,0c0-.962.345-1.751,1.233-1.751s1.233.814,1.233,1.751c0,.912-.345,1.751-1.233,1.751S19.258,34.226,19.258,33.338Zm6.535,2.737h2.318c.986,0,2.145-.271,2.145-1.578,0-.666-.37-1.06-1.11-1.208v-.025a1.233,1.233,0,0,0,.962-1.282c0-.937-.764-1.406-1.775-1.406h-2.54v5.5Zm1.48-2.343h.444c.493,0,1.085.049,1.085.641,0,.567-.567.641-1.085.641h-.444V33.733Zm0-2.121h.419c.493,0,.962.049.962.542,0,.469-.493.592-.986.592h-.419l.025-1.134Zm3.649,4.463h1.455v-2.17h.3c.542,0,.74.247,1.036,1.184l.321.986h1.529l-.542-1.5c-.271-.666-.3-1.085-.789-1.208v-.025a1.278,1.278,0,0,0,1.06-1.381c0-.937-.789-1.381-1.775-1.381H30.9l.025,5.5Zm1.48-4.463H32.8c.567,0,1.06.1,1.06.616,0,.616-.592.641-1.06.641H32.4V31.612Zm3.329,4.463h1.48l.444-1.184H39.7l.419,1.184h1.6l-2.121-5.5H37.8l-2.071,5.5Zm3.649-2.219H38l.715-2.145h.025l.641,2.145Zm7.274,2.219h1.455v-5.5H46.654v5.5Zm2.466,0h3.723V34.991H50.575V30.577H49.12v5.5Zm-7.176-.148a5.323,5.323,0,0,0,1.627.247c1.233,0,2.417-.395,2.417-1.825,0-1.973-2.589-1.381-2.589-2.269,0-.469.616-.518.986-.518a3.06,3.06,0,0,1,1.233.247l.1-1.134a4.017,4.017,0,0,0-1.43-.2c-1.11,0-2.392.37-2.392,1.677,0,2,2.589,1.356,2.589,2.367,0,.444-.444.542-.912.542a3.231,3.231,0,0,1-1.5-.37Z" fill="#025c75" fill-rule="evenodd"/>
</svg>
